REM DIRINDEX 1\3,1\2\4,1\2\5,1\2\6
REM DIRNAME cjc137,folder01,folder02,folder03,folder04,folder05
TITLE ""
FILE "160.mp3" MP3
  TRACK 01 AUDIO
    TITLE "4:cjc137_7256"
    INDEX 01 00:00:00
  TRACK 02 AUDIO
    TITLE "0:"
    INDEX 01 00:01:42
  TRACK 03 AUDIO
    TITLE "6:cjc137_7257"
    INDEX 01 00:01:54
  TRACK 04 AUDIO
    TITLE "0:"
    INDEX 01 00:03:27
  TRACK 05 AUDIO
    TITLE "5:cjc137_7258"
    INDEX 01 00:03:35
  TRACK 06 AUDIO
    TITLE "0:"
    INDEX 01 00:05:03
  TRACK 07 AUDIO
    TITLE "4:cjc137_7259"
    INDEX 01 00:06:14
  TRACK 08 AUDIO
    TITLE "0:"
    INDEX 01 00:07:43
  TRACK 09 AUDIO
    TITLE "6:cjc137_7260"
    INDEX 01 00:07:54
  TRACK 10 AUDIO
    TITLE "0:"
    INDEX 01 00:09:04
  TRACK 11 AUDIO
    TITLE "5:cjc137_7261"
    INDEX 01 00:09:10
  TRACK 12 AUDIO
    TITLE "0:"
    INDEX 01 00:10:39
  TRACK 13 AUDIO
    TITLE "4:cjc137_7262"
    INDEX 01 00:11:52
  TRACK 14 AUDIO
    TITLE "0:"
    INDEX 01 00:13:28
  TRACK 15 AUDIO
    TITLE "6:cjc137_7263"
    INDEX 01 00:13:33
  TRACK 16 AUDIO
    TITLE "0:"
    INDEX 01 00:15:30
  TRACK 17 AUDIO
    TITLE "5:cjc137_7264"
    INDEX 01 00:15:36
  TRACK 18 AUDIO
    TITLE "0:"
    INDEX 01 00:17:12
  TRACK 19 AUDIO
    TITLE "4:cjc137_7265"
    INDEX 01 00:18:19
  TRACK 20 AUDIO
    TITLE "0:"
    INDEX 01 00:19:42
  TRACK 21 AUDIO
    TITLE "6:cjc137_7266"
    INDEX 01 00:19:48
  TRACK 22 AUDIO
    TITLE "0:"
    INDEX 01 00:21:00
  TRACK 23 AUDIO
    TITLE "5:cjc137_7267"
    INDEX 01 00:21:08
  TRACK 24 AUDIO
    TITLE "0:"
    INDEX 01 00:22:27
  TRACK 25 AUDIO
    TITLE "4:cjc137_7268"
    INDEX 01 00:23:36
  TRACK 26 AUDIO
    TITLE "0:"
    INDEX 01 00:25:03
  TRACK 27 AUDIO
    TITLE "6:cjc137_7269"
    INDEX 01 00:25:11
  TRACK 28 AUDIO
    TITLE "0:"
    INDEX 01 00:26:48
  TRACK 29 AUDIO
    TITLE "5:cjc137_7270"
    INDEX 01 00:26:54
  TRACK 30 AUDIO
    TITLE "0:"
    INDEX 01 00:28:21
  TRACK 31 AUDIO
    TITLE "4:cjc137_7271"
    INDEX 01 00:29:31
  TRACK 32 AUDIO
    TITLE "0:"
    INDEX 01 00:30:67
  TRACK 33 AUDIO
    TITLE "6:cjc137_7272"
    INDEX 01 00:30:73
  TRACK 34 AUDIO
    TITLE "0:"
    INDEX 01 00:31:73
  TRACK 35 AUDIO
    TITLE "5:cjc137_7273"
    INDEX 01 00:32:01
  TRACK 36 AUDIO
    TITLE "0:"
    INDEX 01 00:33:36
  TRACK 37 AUDIO
    TITLE "4:cjc137_7274"
    INDEX 01 00:34:45
  TRACK 38 AUDIO
    TITLE "0:"
    INDEX 01 00:35:64
  TRACK 39 AUDIO
    TITLE "6:cjc137_7275"
    INDEX 01 00:35:72
  TRACK 40 AUDIO
    TITLE "0:"
    INDEX 01 00:37:48
  TRACK 41 AUDIO
    TITLE "5:cjc137_7276"
    INDEX 01 00:37:56
  TRACK 42 AUDIO
    TITLE "0:"
    INDEX 01 00:39:00
  TRACK 43 AUDIO
    TITLE "4:cjc137_7277"
    INDEX 01 00:40:09
  TRACK 44 AUDIO
    TITLE "0:"
    INDEX 01 00:41:34
  TRACK 45 AUDIO
    TITLE "6:cjc137_7278"
    INDEX 01 00:41:40
  TRACK 46 AUDIO
    TITLE "0:"
    INDEX 01 00:42:45
  TRACK 47 AUDIO
    TITLE "5:cjc137_7279"
    INDEX 01 00:42:53
  TRACK 48 AUDIO
    TITLE "0:"
    INDEX 01 00:44:03
  TRACK 49 AUDIO
    TITLE "4:cjc137_7280"
    INDEX 01 00:45:10
  TRACK 50 AUDIO
    TITLE "0:"
    INDEX 01 00:47:30
  TRACK 51 AUDIO
    TITLE "6:cjc137_7281"
    INDEX 01 00:47:38
  TRACK 52 AUDIO
    TITLE "0:"
    INDEX 01 00:49:18
  TRACK 53 AUDIO
    TITLE "5:cjc137_7282"
    INDEX 01 00:49:23
  TRACK 54 AUDIO
    TITLE "0:"
    INDEX 01 00:51:42
  TRACK 55 AUDIO
    TITLE "4:cjc137_7283"
    INDEX 01 00:52:51
  TRACK 56 AUDIO
    TITLE "0:"
    INDEX 01 00:54:54
  TRACK 57 AUDIO
    TITLE "6:cjc137_7284"
    INDEX 01 00:54:66
  TRACK 58 AUDIO
    TITLE "0:"
    INDEX 01 00:56:69
  TRACK 59 AUDIO
    TITLE "5:cjc137_7285"
    INDEX 01 00:57:01
  TRACK 60 AUDIO
    TITLE "0:"
    INDEX 01 00:59:06
  TRACK 61 AUDIO
    TITLE "4:cjc137_7286"
    INDEX 01 01:00:17
  TRACK 62 AUDIO
    TITLE "0:"
    INDEX 01 01:01:42
  TRACK 63 AUDIO
    TITLE "6:cjc137_7287"
    INDEX 01 01:01:50
  TRACK 64 AUDIO
    TITLE "0:"
    INDEX 01 01:03:27
  TRACK 65 AUDIO
    TITLE "5:cjc137_7288"
    INDEX 01 01:03:33
  TRACK 66 AUDIO
    TITLE "0:"
    INDEX 01 01:04:60
  TRACK 67 AUDIO
    TITLE "4:cjc137_7289"
    INDEX 01 01:05:68
  TRACK 68 AUDIO
    TITLE "0:"
    INDEX 01 01:08:13
  TRACK 69 AUDIO
    TITLE "6:cjc137_7290"
    INDEX 01 01:08:19
  TRACK 70 AUDIO
    TITLE "0:"
    INDEX 01 01:10:39
  TRACK 71 AUDIO
    TITLE "5:cjc137_7291"
    INDEX 01 01:10:47
  TRACK 72 AUDIO
    TITLE "0:"
    INDEX 01 01:12:66
  TRACK 73 AUDIO
    TITLE "4:cjc137_7292"
    INDEX 01 01:13:73
  TRACK 74 AUDIO
    TITLE "0:"
    INDEX 01 01:15:66
  TRACK 75 AUDIO
    TITLE "6:cjc137_7293"
    INDEX 01 01:15:70
  TRACK 76 AUDIO
    TITLE "0:"
    INDEX 01 01:17:33
  TRACK 77 AUDIO
    TITLE "5:cjc137_7294"
    INDEX 01 01:17:37
  TRACK 78 AUDIO
    TITLE "0:"
    INDEX 01 01:19:30
  TRACK 79 AUDIO
    TITLE "4:cjc137_7295"
    INDEX 01 01:20:40
  TRACK 80 AUDIO
    TITLE "0:"
    INDEX 01 01:21:70
  TRACK 81 AUDIO
    TITLE "6:cjc137_7296"
    INDEX 01 01:22:05
  TRACK 82 AUDIO
    TITLE "0:"
    INDEX 01 01:23:62
  TRACK 83 AUDIO
    TITLE "5:cjc137_7297"
    INDEX 01 01:23:71
  TRACK 84 AUDIO
    TITLE "0:"
    INDEX 01 01:25:27
  TRACK 85 AUDIO
    TITLE "4:cjc137_7298"
    INDEX 01 01:26:36
  TRACK 86 AUDIO
    TITLE "0:"
    INDEX 01 01:28:63
  TRACK 87 AUDIO
    TITLE "6:cjc137_7299"
    INDEX 01 01:28:69
  TRACK 88 AUDIO
    TITLE "0:"
    INDEX 01 01:32:00
  TRACK 89 AUDIO
    TITLE "5:cjc137_7300"
    INDEX 01 01:32:08
  TRACK 90 AUDIO
    TITLE "0:"
    INDEX 01 01:34:34
  TRACK 91 AUDIO
    TITLE "4:cjc137_7301"
    INDEX 01 01:35:41
  TRACK 92 AUDIO
    TITLE "0:"
    INDEX 01 01:36:72
  TRACK 93 AUDIO
    TITLE "6:cjc137_7302"
    INDEX 01 01:37:07
  TRACK 94 AUDIO
    TITLE "0:"
    INDEX 01 01:38:69
  TRACK 95 AUDIO
    TITLE "5:cjc137_7303"
    INDEX 01 01:39:04
  TRACK 96 AUDIO
    TITLE "0:"
    INDEX 01 01:40:36
  TRACK 97 AUDIO
    TITLE "4:cjc137_7304"
    INDEX 01 01:41:46
  TRACK 98 AUDIO
    TITLE "0:"
    INDEX 01 01:42:73
  TRACK 99 AUDIO
    TITLE "6:cjc137_7305"
    INDEX 01 01:43:02
  TRACK 100 AUDIO
    TITLE "0:"
    INDEX 01 01:43:70
  TRACK 101 AUDIO
    TITLE "5:cjc137_7306"
    INDEX 01 01:44:01
  TRACK 102 AUDIO
    TITLE "0:"
    INDEX 01 01:45:24
  TRACK 103 AUDIO
    TITLE "4:cjc137_7307"
    INDEX 01 01:46:35
  TRACK 104 AUDIO
    TITLE "0:"
    INDEX 01 01:47:54
  TRACK 105 AUDIO
    TITLE "6:cjc137_7308"
    INDEX 01 01:47:62
  TRACK 106 AUDIO
    TITLE "0:"
    INDEX 01 01:49:28
  TRACK 107 AUDIO
    TITLE "5:cjc137_7309"
    INDEX 01 01:49:32
  TRACK 108 AUDIO
    TITLE "0:"
    INDEX 01 01:50:53
  TRACK 109 AUDIO
    TITLE "4:cjc137_7310"
    INDEX 01 01:51:62
  TRACK 110 AUDIO
    TITLE "0:"
    INDEX 01 01:53:49
  TRACK 111 AUDIO
    TITLE "6:cjc137_7311"
    INDEX 01 01:53:55
  TRACK 112 AUDIO
    TITLE "0:"
    INDEX 01 01:55:48
  TRACK 113 AUDIO
    TITLE "5:cjc137_7312"
    INDEX 01 01:55:54
  TRACK 114 AUDIO
    TITLE "0:"
    INDEX 01 01:57:39
  TRACK 115 AUDIO
    TITLE "4:cjc137_7313"
    INDEX 01 01:58:48
  TRACK 116 AUDIO
    TITLE "0:"
    INDEX 01 02:00:00
  TRACK 117 AUDIO
    TITLE "6:cjc137_7314"
    INDEX 01 02:00:06
  TRACK 118 AUDIO
    TITLE "0:"
    INDEX 01 02:01:39
  TRACK 119 AUDIO
    TITLE "5:cjc137_7315"
    INDEX 01 02:01:43
  TRACK 120 AUDIO
    TITLE "0:"
    INDEX 01 02:02:69
  TRACK 121 AUDIO
    TITLE "4:cjc137_7316"
    INDEX 01 02:04:04
  TRACK 122 AUDIO
    TITLE "0:"
    INDEX 01 02:05:33
  TRACK 123 AUDIO
    TITLE "6:cjc137_7317"
    INDEX 01 02:05:38
  TRACK 124 AUDIO
    TITLE "0:"
    INDEX 01 02:07:18
  TRACK 125 AUDIO
    TITLE "5:cjc137_7318"
    INDEX 01 02:07:24
  TRACK 126 AUDIO
    TITLE "0:"
    INDEX 01 02:08:54
  TRACK 127 AUDIO
    TITLE "4:cjc137_7319"
    INDEX 01 02:09:62
  TRACK 128 AUDIO
    TITLE "0:"
    INDEX 01 02:11:33
  TRACK 129 AUDIO
    TITLE "6:cjc137_7320"
    INDEX 01 02:11:43
  TRACK 130 AUDIO
    TITLE "0:"
    INDEX 01 02:13:09
  TRACK 131 AUDIO
    TITLE "5:cjc137_7321"
    INDEX 01 02:13:16
  TRACK 132 AUDIO
    TITLE "0:"
    INDEX 01 02:14:63
